<svg xmlns="http://www.w3.org/2000/svg" width="96" height="40"><defs><linearGradient id="body" x2=".15" y2="1"><stop stop-color="#284354"/><stop offset=".35" stop-color="#142b3c"/><stop offset="1" stop-color="#080f19"/></linearGradient><linearGradient id="edge" x2=".3" y2="1"><stop stop-color="#a89a76"/><stop offset=".5" stop-color="#3c494e"/><stop offset="1" stop-color="#938166"/></linearGradient><radialGradient id="light" cx=".48" cy="0" r=".9"><stop stop-color="#78adbf" stop-opacity=".19"/><stop offset="1" stop-color="#78adbf" stop-opacity="0"/></radialGradient></defs>
<rect x="1" y="2" width="94" height="37" rx="2" fill="#000" fill-opacity=".6"/>
<path d="M5 2H91L94 5V34L91 37H5L2 34V5Z" fill="url(#body)" stroke="url(#edge)" stroke-width=".85"/>
<rect x="4" y="4" width="88" height="31" rx="1" fill="url(#light)" stroke="#78adbf" stroke-opacity=".12" stroke-width=".6"/>
<path d="M12 4H84" stroke="#78adbf" stroke-opacity=".35" stroke-width=".65"/>
<path d="M13 8h0.5" stroke="#bbd1cc" stroke-opacity=".025" stroke-width=".45"/><path d="M42 21h1.5" stroke="#bbd1cc" stroke-opacity=".025" stroke-width=".45"/><path d="M71 10h0.5" stroke="#bbd1cc" stroke-opacity=".025" stroke-width=".45"/><path d="M30 23h1.5" stroke="#bbd1cc" stroke-opacity=".025" stroke-width=".45"/><path d="M59 12h0.5" stroke="#bbd1cc" stroke-opacity=".025" stroke-width=".45"/><path d="M18 25h1.5" stroke="#bbd1cc" stroke-opacity=".025" stroke-width=".45"/><path d="M47 14h0.5" stroke="#bbd1cc" stroke-opacity=".025" stroke-width=".45"/><path d="M76 27h1.5" stroke="#bbd1cc" stroke-opacity=".025" stroke-width=".45"/><path d="M35 16h0.5" stroke="#bbd1cc" stroke-opacity=".025" stroke-width=".45"/><path d="M64 29h1.5" stroke="#bbd1cc" stroke-opacity=".025" stroke-width=".45"/><path d="M23 18h0.5" stroke="#bbd1cc" stroke-opacity=".025" stroke-width=".45"/><path d="M52 31h1.5" stroke="#bbd1cc" stroke-opacity=".025" stroke-width=".45"/><path d="M81 20h0.5" stroke="#bbd1cc" stroke-opacity=".025" stroke-width=".45"/><path d="M40 9h1.5" stroke="#bbd1cc" stroke-opacity=".025" stroke-width=".45"/><path d="M69 22h0.5" stroke="#bbd1cc" stroke-opacity=".025" stroke-width=".45"/><path d="M28 11h1.5" stroke="#bbd1cc" stroke-opacity=".025" stroke-width=".45"/><path d="M57 24h0.5" stroke="#bbd1cc" stroke-opacity=".025" stroke-width=".45"/><path d="M16 13h1.5" stroke="#bbd1cc" stroke-opacity=".025" stroke-width=".45"/><path d="M45 26h0.5" stroke="#bbd1cc" stroke-opacity=".025" stroke-width=".45"/><path d="M74 15h1.5" stroke="#bbd1cc" stroke-opacity=".025" stroke-width=".45"/><path d="M33 28h0.5" stroke="#bbd1cc" stroke-opacity=".025" stroke-width=".45"/><path d="M62 17h1.5" stroke="#bbd1cc" stroke-opacity=".025" stroke-width=".45"/><path d="M21 30h0.5" stroke="#bbd1cc" stroke-opacity=".025" stroke-width=".45"/><path d="M50 19h1.5" stroke="#bbd1cc" stroke-opacity=".025" stroke-width=".45"/><path d="M79 8h0.5" stroke="#bbd1cc" stroke-opacity=".025" stroke-width=".45"/><path d="M38 21h1.5" stroke="#bbd1cc" stroke-opacity=".025" stroke-width=".45"/><path d="M67 10h0.5" stroke="#bbd1cc" stroke-opacity=".025" stroke-width=".45"/><path d="M26 23h1.5" stroke="#bbd1cc" stroke-opacity=".025" stroke-width=".45"/><path d="M55 12h0.5" stroke="#bbd1cc" stroke-opacity=".025" stroke-width=".45"/><path d="M14 25h1.5" stroke="#bbd1cc" stroke-opacity=".025" stroke-width=".45"/><path d="M43 14h0.5" stroke="#bbd1cc" stroke-opacity=".025" stroke-width=".45"/><path d="M72 27h1.5" stroke="#bbd1cc" stroke-opacity=".025" stroke-width=".45"/><path d="M31 16h0.5" stroke="#bbd1cc" stroke-opacity=".025" stroke-width=".45"/><path d="M60 29h1.5" stroke="#bbd1cc" stroke-opacity=".025" stroke-width=".45"/><path d="M19 18h0.5" stroke="#bbd1cc" stroke-opacity=".025" stroke-width=".45"/><path d="M48 31h1.5" stroke="#bbd1cc" stroke-opacity=".025" stroke-width=".45"/><path d="M77 20h0.5" stroke="#bbd1cc" stroke-opacity=".025" stroke-width=".45"/><path d="M36 9h1.5" stroke="#bbd1cc" stroke-opacity=".025" stroke-width=".45"/><path d="M65 22h0.5" stroke="#bbd1cc" stroke-opacity=".025" stroke-width=".45"/><path d="M24 11h1.5" stroke="#bbd1cc" stroke-opacity=".025" stroke-width=".45"/><path d="M53 24h0.5" stroke="#bbd1cc" stroke-opacity=".025" stroke-width=".45"/><path d="M82 13h1.5" stroke="#bbd1cc" stroke-opacity=".025" stroke-width=".45"/><path d="M41 26h0.5" stroke="#bbd1cc" stroke-opacity=".025" stroke-width=".45"/><path d="M70 15h1.5" stroke="#bbd1cc" stroke-opacity=".025" stroke-width=".45"/><path d="M29 28h0.5" stroke="#bbd1cc" stroke-opacity=".025" stroke-width=".45"/><path d="M58 17h1.5" stroke="#bbd1cc" stroke-opacity=".025" stroke-width=".45"/><path d="M17 30h0.5" stroke="#bbd1cc" stroke-opacity=".025" stroke-width=".45"/><path d="M46 19h1.5" stroke="#bbd1cc" stroke-opacity=".025" stroke-width=".45"/><path d="M75 8h0.5" stroke="#bbd1cc" stroke-opacity=".025" stroke-width=".45"/><path d="M34 21h1.5" stroke="#bbd1cc" stroke-opacity=".025" stroke-width=".45"/><path d="M63 10h0.5" stroke="#bbd1cc" stroke-opacity=".025" stroke-width=".45"/><path d="M22 23h1.5" stroke="#bbd1cc" stroke-opacity=".025" stroke-width=".45"/><path d="M51 12h0.5" stroke="#bbd1cc" stroke-opacity=".025" stroke-width=".45"/><path d="M80 25h1.5" stroke="#bbd1cc" stroke-opacity=".025" stroke-width=".45"/><path d="M39 14h0.5" stroke="#bbd1cc" stroke-opacity=".025" stroke-width=".45"/><path d="M68 27h1.5" stroke="#bbd1cc" stroke-opacity=".025" stroke-width=".45"/><path d="M27 16h0.5" stroke="#bbd1cc" stroke-opacity=".025" stroke-width=".45"/><path d="M56 29h1.5" stroke="#bbd1cc" stroke-opacity=".025" stroke-width=".45"/><path d="M15 18h0.5" stroke="#bbd1cc" stroke-opacity=".025" stroke-width=".45"/><path d="M44 31h1.5" stroke="#bbd1cc" stroke-opacity=".025" stroke-width=".45"/><path d="M73 20h0.5" stroke="#bbd1cc" stroke-opacity=".025" stroke-width=".45"/><path d="M32 9h1.5" stroke="#bbd1cc" stroke-opacity=".025" stroke-width=".45"/><path d="M61 22h0.5" stroke="#bbd1cc" stroke-opacity=".025" stroke-width=".45"/><path d="M20 11h1.5" stroke="#bbd1cc" stroke-opacity=".025" stroke-width=".45"/><path d="M49 24h0.5" stroke="#bbd1cc" stroke-opacity=".025" stroke-width=".45"/><path d="M78 13h1.5" stroke="#bbd1cc" stroke-opacity=".025" stroke-width=".45"/><path d="M37 26h0.5" stroke="#bbd1cc" stroke-opacity=".025" stroke-width=".45"/><path d="M66 15h1.5" stroke="#bbd1cc" stroke-opacity=".025" stroke-width=".45"/><path d="M25 28h0.5" stroke="#bbd1cc" stroke-opacity=".025" stroke-width=".45"/><path d="M54 17h1.5" stroke="#bbd1cc" stroke-opacity=".025" stroke-width=".45"/><path d="M13 30h0.5" stroke="#bbd1cc" stroke-opacity=".025" stroke-width=".45"/><path d="M42 19h1.5" stroke="#bbd1cc" stroke-opacity=".025" stroke-width=".45"/><path d="M71 8h0.5" stroke="#bbd1cc" stroke-opacity=".025" stroke-width=".45"/><path d="M30 21h1.5" stroke="#bbd1cc" stroke-opacity=".025" stroke-width=".45"/><path d="M59 10h0.5" stroke="#bbd1cc" stroke-opacity=".025" stroke-width=".45"/><path d="M18 23h1.5" stroke="#bbd1cc" stroke-opacity=".025" stroke-width=".45"/><path d="M47 12h0.5" stroke="#bbd1cc" stroke-opacity=".025" stroke-width=".45"/><path d="M76 25h1.5" stroke="#bbd1cc" stroke-opacity=".025" stroke-width=".45"/><path d="M35 14h0.5" stroke="#bbd1cc" stroke-opacity=".025" stroke-width=".45"/><path d="M64 27h1.5" stroke="#bbd1cc" stroke-opacity=".025" stroke-width=".45"/><path d="M23 16h0.5" stroke="#bbd1cc" stroke-opacity=".025" stroke-width=".45"/><path d="M52 29h1.5" stroke="#bbd1cc" stroke-opacity=".025" stroke-width=".45"/><path d="M81 18h0.5" stroke="#bbd1cc" stroke-opacity=".025" stroke-width=".45"/><path d="M40 31h1.5" stroke="#bbd1cc" stroke-opacity=".025" stroke-width=".45"/><path d="M69 20h0.5" stroke="#bbd1cc" stroke-opacity=".025" stroke-width=".45"/><path d="M28 9h1.5" stroke="#bbd1cc" stroke-opacity=".025" stroke-width=".45"/><path d="M57 22h0.5" stroke="#bbd1cc" stroke-opacity=".025" stroke-width=".45"/><path d="M16 11h1.5" stroke="#bbd1cc" stroke-opacity=".025" stroke-width=".45"/><path d="M45 24h0.5" stroke="#bbd1cc" stroke-opacity=".025" stroke-width=".45"/><path d="M74 13h1.5" stroke="#bbd1cc" stroke-opacity=".025" stroke-width=".45"/>
<path d="M5 10Q11 11 8 16Q5 20 8 24Q11 29 5 30M91 10Q85 11 88 16Q91 20 88 24Q85 29 91 30" fill="none" stroke="#a89a76" stroke-opacity=".5" stroke-width=".65"/>
<path d="M5 19L7 17L9 19L7 21ZM91 19L89 17L87 19L89 21Z" fill="#a89a76" fill-opacity=".6"/>
</svg>
